<svg t="1767344322021" class="icon" viewBox="0 0 1024 1024" version="1.1" xmlns="http://www.w3.org/2000/svg" p-id="55627" width="16" height="16"><path d="M901.312 504.8l-76.32-150.016a77.6 77.6 0 0 0-69.504-42.56h-116.48a2.016 2.016 0 0 1-2.016-2.016V120.608c0-31.104-25.28-56.32-56.32-56.32h-89.984c-31.072 0-56.288 25.312-56.288 56.32v189.6a2.016 2.016 0 0 1-2.016 1.984H315.84c-29.504 0-56.096 16.32-69.504 42.624l-76.32 149.984a57.696 57.696 0 0 0 2.24 56.608c10.272 16.8 27.872 26.976 47.36 27.584-4.8 101.024-38.272 205.92-90.176 279.52a57.856 57.856 0 0 0-4.096 60.096c9.984 19.296 29.696 31.296 51.488 31.296h601.504a78.144 78.144 0 0 0 75.2-57.408c15.488-56.48 28.384-107.904 29.408-164.896a339.264 339.264 0 0 0-30.016-148.608 57.856 57.856 0 0 0 46.208-27.584c10.592-17.28 11.392-38.496 2.208-56.608z m-681.408 25.408l76.288-150.016a21.952 21.952 0 0 1 19.616-12h116.384c32 0 58.016-25.984 58.016-57.984V120.608c0-0.096 0.192-0.32 0.32-0.32h89.984c0.096 0 0.288 0.224 0.288 0.32v189.6c0 32 26.016 57.984 58.016 57.984H755.2c8.32 0 15.808 4.608 19.584 12l76.32 150.016c0.192 0.32 0.48 0.992-0.096 1.984-0.608 1.024-1.28 1.024-1.696 1.024H221.696c-0.384 0-1.088 0-1.696-1.024-0.608-0.992-0.32-1.696-0.096-1.984z m607.104 206.4c-0.896 50.496-12.896 98.304-27.424 151.104a22.08 22.08 0 0 1-21.184 16.192h-126.592a317.984 317.984 0 0 0 23.104-61.216 303.04 303.04 0 0 0 10.56-77.984 27.968 27.968 0 0 0-56 0.384c0.128 42.72-14.08 98.24-42.688 138.816h-180.576a344.64 344.64 0 0 0 54.816-134.4 28 28 0 0 0-55.232-9.216 284.384 284.384 0 0 1-17.696 60.416c-10.112 24.608-27.808 58.112-55.584 83.296H176.896c-0.48 0-1.184 0-1.792-1.088-0.608-1.12-0.192-1.6 0.096-2.016 29.696-42.112 54.816-94.496 72.512-151.392 16.192-52.096 25.696-106.88 28-160.32h514.56a285.76 285.76 0 0 1 36.736 147.424z" fill="#ffffff" p-id="55628"></path></svg>