<svg t="1767343232993" class="icon" viewBox="0 0 1514 1024" version="1.1" xmlns="http://www.w3.org/2000/svg" p-id="19353" width="16" height="16"><path d="M510.07173284 231.78941916h790.89204813a49.43075334 49.43075334 0 0 0 0-98.86150591h-790.89204813a49.43075334 49.43075334 0 0 0 0 98.86150591zM1300.96378097 792.08700395h-790.89204813a49.43075334 49.43075334 0 0 0 0 98.86150593h790.89204813a49.43075334 49.43075334 0 0 0 0-98.86150592zM1300.96378097 462.5074586h-790.89204813a49.43075334 49.43075334 0 0 0 0 98.86150592h790.89204813a49.43075334 49.43075334 0 0 0 0-98.86150592zM246.48224269 775.5277021a65.9900552 65.9900552 0 1 0 65.9900552 65.9900552 65.9900552 65.9900552 0 0 0-66.11363208-65.9900552z" p-id="19354" fill="#ffffff"></path><path d="M246.48224269 182.35866582m-65.86647833 0a65.86647832 65.86647832 0 1 0 131.73295664 0 65.86647832 65.86647832 0 1 0-131.73295664 0Z" p-id="19355" fill="#ffffff"></path><path d="M246.48224269 511.93821118m-65.86647833 0a65.86647832 65.86647832 0 1 0 131.73295664 0 65.86647832 65.86647832 0 1 0-131.73295664 0Z" p-id="19356" fill="#ffffff"></path></svg>